<?xml version="1.0" encoding="UTF-8"?>
<svg xmlns="http://www.w3.org/2000/svg" width="16" height="16" viewBox="0 0 16 16" version="1.1">
  <style id="style833">
    .cls-1 {
      fill: none;
    }
  </style>
  <path
     d="m 14.225545,4.0848355 -1.372394,-1.410918 a 0.45719055,0.47002391 0 0 0 -0.646857,0 L 7.9550721,7.0444254 v 2.0759773 h 2.0192972 l 4.2511757,-4.370554 a 0.45719055,0.47002391 0 0 0 0,-0.6650132 z M 9.5954957,8.1797914 H 8.8700019 V 7.4339328 L 11.157327,5.0824025 11.882821,5.8282601 Z M 12.529722,5.1632007 11.804228,4.417342 12.529722,3.6714834 13.255216,4.417342 Z"
     id="path837"
     style="fill:#4d4d4d;stroke-width:0.463841" />
  <path
     d="M 5.2102815,7.239179 A 1.8298601,1.8812243 0 1 1 7.0401422,5.3579544 1.8319187,1.8833407 0 0 1 5.2102815,7.239179 Z m 0,-2.821837 A 0.91493005,0.94061218 0 1 0 6.1242967,5.3600236 0.91584498,0.9415528 0 0 0 5.2102815,4.417342 Z"
     id="path839"
     style="fill:#4d4d4d;stroke-width:0.463841" />
  <path
     d="M 12.944942,7.619552 12.298041,8.284564 13.399708,9.4171557 8.8515458,14.093127 2.4205482,7.4812817 V 2.8057803 H 6.9685277 L 8.9844391,4.8782781 9.6313402,4.213031 7.6152922,2.1407209 A 0.91493005,0.94061218 0 0 0 6.9683911,1.8651685 H 2.4205482 A 0.91493005,0.94061218 0 0 0 1.5056184,2.8057803 v 4.6755014 a 0.91493005,0.94061218 0 0 0 0.2679368,0.6650594 l 6.4309975,6.6120799 a 0.91538752,0.94108248 0 0 0 1.2939862,0 l 4.5482991,-4.67597 a 0.91538752,0.94108248 0 0 0 0,-1.3303085 z"
     id="path841"
     style="fill:#4d4d4d;stroke-width:0.463841" />
  <rect
     id="_Transparent_Rectangle_"
     data-name="&lt;Transparent Rectangle&gt;"
     class="cls-1"
     width="32"
     height="32"
     x="0"
     y="0" />
</svg>
